# xmcd
#
# Track frame offsets: 
#        150
#        12398
#        26153
#        41330
#        61231
#        75181
#        92760
#        111774
#        125284
#
# Disc length: 1882 seconds
#
# Revision: 0
# Processed by: cddbd v1.5.2PL0 Copyright (c) Steve Scherf et al.
# Submitted via: ExactAudioCopy v0.99pb5
#
DISCID=62075809
DTITLE=Austin Lucas - The Common Cold
DYEAR=2009
DGENRE=Country
TTITLE0=Dead Factories
TTITLE1=Darlin'
TTITLE2=Pigeon Father
TTITLE3=Anything For the Baby
TTITLE4=Common Cold
TTITLE5=Corn Husker
TTITLE6=Cruel Brothers
TTITLE7=Kith and Kin
TTITLE8=Last Song For a Sweetheart
EXTD=
EXTT0=
EXTT1=
EXTT2=
EXTT3=
EXTT4=
EXTT5=
EXTT6=
EXTT7=
EXTT8=
PLAYORDER=
